<svg width="120" height="104" viewBox="0 0 120 104" fill="none" xmlns="http://www.w3.org/2000/svg">
<path d="M112.502 44.5693C113.985 44.5702 115.435 45.0065 116.668 45.8231C117.901 46.6396 118.862 47.7998 119.429 49.157C119.997 50.5143 120.145 52.0076 119.856 53.4484C119.567 54.8892 118.853 56.2128 117.805 57.252C117.118 57.9542 116.293 58.5093 115.381 58.8832C114.469 59.257 113.489 59.4417 112.502 59.4256H111.62L104.879 97.8432C104.57 99.5624 103.662 101.12 102.313 102.245C100.964 103.369 99.2603 103.991 97.4972 104H22.5035C20.7395 103.992 19.0343 103.371 17.6845 102.246C16.3348 101.121 15.4261 99.5633 15.1165 97.8432L8.40154 59.4256H7.49851C6.51173 59.4404 5.53232 59.2552 4.62044 58.8814C3.70855 58.5077 2.88345 57.9532 2.19582 57.252C1.48516 56.5731 0.923487 55.7562 0.545891 54.8526C0.168294 53.9489 -0.0171158 52.9779 0.0012414 52C-0.0115235 51.023 0.176439 50.0536 0.553706 49.1507C0.930972 48.2479 1.48966 47.4304 2.19582 46.7481C2.88232 46.0454 3.70721 45.49 4.61936 45.1161C5.53151 44.7422 6.51147 44.5578 7.49851 44.5745H112.502V44.5693ZM28.4205 91C29.4095 90.9099 30.324 90.4411 30.9692 89.6932C31.6145 88.9454 31.9395 87.9776 31.8751 86.996L30.0008 62.8524C29.9099 61.8729 29.4365 60.9671 28.6814 60.3281C27.9264 59.689 26.9493 59.3671 25.9582 59.4308C25.4656 59.465 24.9852 59.5983 24.5464 59.8227C24.1077 60.0472 23.7198 60.3579 23.4066 60.736C23.0768 61.1002 22.8263 61.5278 22.671 61.9922C22.5156 62.4566 22.4586 62.9477 22.5035 63.4348C24.4566 88.5456 24.8556 89.3568 25.5802 90.012C25.9634 90.3556 26.4121 90.6199 26.8998 90.7896C27.3875 90.9592 27.9045 91.0308 28.4205 91ZM52.5031 87.282C52.5031 62.1348 52.1304 61.282 51.3901 60.528C51.0504 60.1782 50.6426 59.9002 50.1915 59.7107C49.7403 59.5212 49.255 59.4243 48.765 59.4256C48.2745 59.4212 47.7883 59.5168 47.3367 59.7065C46.8851 59.8961 46.4777 60.1758 46.1399 60.528C45.3944 61.2664 45.0269 62.14 45.0269 87.282C45.0233 87.7677 45.1202 88.2489 45.3117 88.6961C45.5031 89.1433 45.785 89.5469 46.1399 89.882C46.4796 90.2318 46.8873 90.5099 47.3385 90.6993C47.7897 90.8888 48.2749 90.9858 48.765 90.9844C49.6053 90.6445 50.3688 90.142 51.0107 89.5062C51.6525 88.8705 52.1599 88.1143 52.5031 87.282ZM75.0054 87.282V63.1384C75.009 62.6528 74.912 62.1715 74.7206 61.7243C74.5292 61.2772 74.2473 60.8736 73.8924 60.5384C73.5527 60.1886 73.1449 59.9106 72.6938 59.7211C72.2426 59.5316 71.7573 59.4347 71.2673 59.436C70.7768 59.4316 70.2906 59.5272 69.839 59.7169C69.3874 59.9065 68.98 60.1862 68.6422 60.5384C67.8967 61.2768 67.5292 62.1504 67.5292 87.2924C67.5256 87.7781 67.6225 88.2594 67.814 88.7065C68.0054 89.1537 68.2873 89.5573 68.6422 89.8924C68.9819 90.2422 69.3896 90.5203 69.8408 90.7097C70.292 90.8992 70.7772 90.9962 71.2673 90.9948C71.7578 90.9992 72.244 90.9037 72.6956 90.714C73.1472 90.5244 73.5546 90.2447 73.8924 89.8924C74.2467 89.5549 74.5276 89.1492 74.7181 88.7004C74.9086 88.2515 75.0046 87.7689 75.0002 87.282H75.0054ZM95.6282 87.5732C96.5417 75.8264 96.9617 69.3732 97.114 64.1732C97.2137 61.5732 96.9565 61.1364 96.5889 60.7152C96.1051 60.1612 95.467 59.7608 94.7545 59.5642C94.0421 59.3676 93.2869 59.3835 92.5835 59.61C91.8801 59.8365 91.2598 60.2635 90.8003 60.8374C90.3407 61.4114 90.0623 62.1069 90 62.8368L88.1256 86.9804C88.064 87.9622 88.3908 88.9293 89.0366 89.6766C89.6824 90.424 90.5966 90.8931 91.5855 90.9844H91.8795C92.8268 90.9931 93.7409 90.6392 94.4311 89.9964C95.1397 89.3714 95.5716 88.4954 95.6334 87.5576L95.6282 87.5732ZM27.8902 16.9469L22.4405 40.8669H14.7018L20.624 15.2621C21.3062 11.9624 23.1548 9.01214 25.8374 6.94209C28.4878 4.8167 31.8043 3.67458 35.2142 3.71289H45.0006C44.9971 3.22721 45.094 2.74595 45.2854 2.29879C45.4768 1.85163 45.7587 1.44804 46.1136 1.11289C46.4537 0.759908 46.8627 0.479203 47.3158 0.287886C47.7689 0.0965694 48.2567 -0.00135131 48.7492 9.26053e-05H71.2515C71.7419 -0.00341204 72.2278 0.0925927 72.6793 0.282189C73.1308 0.471786 73.5382 0.750956 73.8766 1.10249C74.2298 1.43895 74.5106 1.84279 74.7019 2.28965C74.8932 2.73651 74.9911 3.21712 74.9897 3.70249H84.776C88.1838 3.66646 91.4984 4.80427 94.1529 6.92129C96.8368 8.9901 98.6859 11.9409 99.3663 15.2413L105.289 40.8357H97.5602L92.1105 16.9157C91.7114 15.2746 90.7732 13.8114 89.4434 12.7557C88.132 11.6857 86.4802 11.1109 84.7813 11.1333H75.0002C75.0037 11.619 74.9068 12.1002 74.7154 12.5474C74.5239 12.9945 74.2421 13.3981 73.8871 13.7333C73.5474 14.0831 73.1397 14.3611 72.6885 14.5506C72.2373 14.7401 71.7521 14.8371 71.262 14.8357H48.7492C48.2589 14.8392 47.773 14.7432 47.3215 14.5536C46.87 14.364 46.4625 14.0848 46.1241 13.7333C45.7709 13.3968 45.4902 12.993 45.2989 12.5461C45.1076 12.0993 45.0097 11.6187 45.0111 11.1333H35.2142C33.5155 11.1118 31.8639 11.6865 30.5521 12.7557C29.2162 13.8183 28.2789 15.2941 27.8902 16.9469Z" fill="#0F1453"/>
</svg>
