<?xml version="1.0" encoding="utf-8"?>
<!DOCTYPE svg PUBLIC "-//W3C//DTD SVG 20010904//EN" "http://www.w3.org/TR/2001/REC-SVG-20010904/DTD/svg10.dtd">
<svg xmlns="http://www.w3.org/2000/svg" xml:space="preserve" xmlns:xlink="http://www.w3.org/1999/xlink" width="984" height="984" viewBox="0 0 984 984">
<defs>
<mask id="qrmask"><g fill="#ffffff">
<g transform="translate(240,48) scale(4)"><rect width="6" height="6"/></g>
<g transform="translate(384,48) scale(4)"><rect width="6" height="6"/></g>
<g transform="translate(456,48) scale(4)"><rect width="6" height="6"/></g>
<g transform="translate(480,48) scale(4)"><rect width="6" height="6"/></g>
<g transform="translate(504,48) scale(4)"><rect width="6" height="6"/></g>
<g transform="translate(528,48) scale(4)"><rect width="6" height="6"/></g>
<g transform="translate(576,48) scale(4)"><rect width="6" height="6"/></g>
<g transform="translate(240,72) scale(4)"><rect width="6" height="6"/></g>
<g transform="translate(312,72) scale(4)"><rect width="6" height="6"/></g>
<g transform="translate(456,72) scale(4)"><rect width="6" height="6"/></g>
<g transform="translate(528,72) scale(4)"><rect width="6" height="6"/></g>
<g transform="translate(600,72) scale(4)"><rect width="6" height="6"/></g>
<g transform="translate(624,72) scale(4)"><rect width="6" height="6"/></g>
<g transform="translate(696,72) scale(4)"><rect width="6" height="6"/></g>
<g transform="translate(720,72) scale(4)"><rect width="6" height="6"/></g>
<g transform="translate(240,96) scale(4)"><rect width="6" height="6"/></g>
<g transform="translate(264,96) scale(4)"><rect width="6" height="6"/></g>
<g transform="translate(360,96) scale(4)"><rect width="6" height="6"/></g>
<g transform="translate(408,96) scale(4)"><rect width="6" height="6"/></g>
<g transform="translate(432,96) scale(4)"><rect width="6" height="6"/></g>
<g transform="translate(600,96) scale(4)"><rect width="6" height="6"/></g>
<g transform="translate(624,96) scale(4)"><rect width="6" height="6"/></g>
<g transform="translate(672,96) scale(4)"><rect width="6" height="6"/></g>
<g transform="translate(720,96) scale(4)"><rect width="6" height="6"/></g>
<g transform="translate(264,120) scale(4)"><rect width="6" height="6"/></g>
<g transform="translate(336,120) scale(4)"><rect width="6" height="6"/></g>
<g transform="translate(384,120) scale(4)"><rect width="6" height="6"/></g>
<g transform="translate(408,120) scale(4)"><rect width="6" height="6"/></g>
<g transform="translate(432,120) scale(4)"><rect width="6" height="6"/></g>
<g transform="translate(504,120) scale(4)"><rect width="6" height="6"/></g>
<g transform="translate(576,120) scale(4)"><rect width="6" height="6"/></g>
<g transform="translate(624,120) scale(4)"><rect width="6" height="6"/></g>
<g transform="translate(648,120) scale(4)"><rect width="6" height="6"/></g>
<g transform="translate(672,120) scale(4)"><rect width="6" height="6"/></g>
<g transform="translate(336,144) scale(4)"><rect width="6" height="6"/></g>
<g transform="translate(360,144) scale(4)"><rect width="6" height="6"/></g>
<g transform="translate(408,144) scale(4)"><rect width="6" height="6"/></g>
<g transform="translate(432,144) scale(4)"><rect width="6" height="6"/></g>
<g transform="translate(456,144) scale(4)"><rect width="6" height="6"/></g>
<g transform="translate(480,144) scale(4)"><rect width="6" height="6"/></g>
<g transform="translate(600,144) scale(4)"><rect width="6" height="6"/></g>
<g transform="translate(624,144) scale(4)"><rect width="6" height="6"/></g>
<g transform="translate(648,144) scale(4)"><rect width="6" height="6"/></g>
<g transform="translate(672,144) scale(4)"><rect width="6" height="6"/></g>
<g transform="translate(720,144) scale(4)"><rect width="6" height="6"/></g>
<g transform="translate(240,168) scale(4)"><rect width="6" height="6"/></g>
<g transform="translate(264,168) scale(4)"><rect width="6" height="6"/></g>
<g transform="translate(360,168) scale(4)"><rect width="6" height="6"/></g>
<g transform="translate(384,168) scale(4)"><rect width="6" height="6"/></g>
<g transform="translate(408,168) scale(4)"><rect width="6" height="6"/></g>
<g transform="translate(456,168) scale(4)"><rect width="6" height="6"/></g>
<g transform="translate(504,168) scale(4)"><rect width="6" height="6"/></g>
<g transform="translate(552,168) scale(4)"><rect width="6" height="6"/></g>
<g transform="translate(576,168) scale(4)"><rect width="6" height="6"/></g>
<g transform="translate(600,168) scale(4)"><rect width="6" height="6"/></g>
<g transform="translate(648,168) scale(4)"><rect width="6" height="6"/></g>
<g transform="translate(672,168) scale(4)"><rect width="6" height="6"/></g>
<g transform="translate(696,168) scale(4)"><rect width="6" height="6"/></g>
<g transform="translate(240,192) scale(4)"><rect width="6" height="6"/></g>
<g transform="translate(288,192) scale(4)"><rect width="6" height="6"/></g>
<g transform="translate(336,192) scale(4)"><rect width="6" height="6"/></g>
<g transform="translate(384,192) scale(4)"><rect width="6" height="6"/></g>
<g transform="translate(432,192) scale(4)"><rect width="6" height="6"/></g>
<g transform="translate(480,192) scale(4)"><rect width="6" height="6"/></g>
<g transform="translate(528,192) scale(4)"><rect width="6" height="6"/></g>
<g transform="translate(576,192) scale(4)"><rect width="6" height="6"/></g>
<g transform="translate(624,192) scale(4)"><rect width="6" height="6"/></g>
<g transform="translate(672,192) scale(4)"><rect width="6" height="6"/></g>
<g transform="translate(720,192) scale(4)"><rect width="6" height="6"/></g>
<g transform="translate(240,216) scale(4)"><rect width="6" height="6"/></g>
<g transform="translate(264,216) scale(4)"><rect width="6" height="6"/></g>
<g transform="translate(360,216) scale(4)"><rect width="6" height="6"/></g>
<g transform="translate(384,216) scale(4)"><rect width="6" height="6"/></g>
<g transform="translate(408,216) scale(4)"><rect width="6" height="6"/></g>
<g transform="translate(432,216) scale(4)"><rect width="6" height="6"/></g>
<g transform="translate(480,216) scale(4)"><rect width="6" height="6"/></g>
<g transform="translate(528,216) scale(4)"><rect width="6" height="6"/></g>
<g transform="translate(648,216) scale(4)"><rect width="6" height="6"/></g>
<g transform="translate(696,216) scale(4)"><rect width="6" height="6"/></g>
<g transform="translate(96,240) scale(4)"><rect width="6" height="6"/></g>
<g transform="translate(120,240) scale(4)"><rect width="6" height="6"/></g>
<g transform="translate(144,240) scale(4)"><rect width="6" height="6"/></g>
<g transform="translate(192,240) scale(4)"><rect width="6" height="6"/></g>
<g transform="translate(240,240) scale(4)"><rect width="6" height="6"/></g>
<g transform="translate(264,240) scale(4)"><rect width="6" height="6"/></g>
<g transform="translate(288,240) scale(4)"><rect width="6" height="6"/></g>
<g transform="translate(312,240) scale(4)"><rect width="6" height="6"/></g>
<g transform="translate(408,240) scale(4)"><rect width="6" height="6"/></g>
<g transform="translate(504,240) scale(4)"><rect width="6" height="6"/></g>
<g transform="translate(552,240) scale(4)"><rect width="6" height="6"/></g>
<g transform="translate(600,240) scale(4)"><rect width="6" height="6"/></g>
<g transform="translate(624,240) scale(4)"><rect width="6" height="6"/></g>
<g transform="translate(672,240) scale(4)"><rect width="6" height="6"/></g>
<g transform="translate(696,240) scale(4)"><rect width="6" height="6"/></g>
<g transform="translate(720,240) scale(4)"><rect width="6" height="6"/></g>
<g transform="translate(744,240) scale(4)"><rect width="6" height="6"/></g>
<g transform="translate(768,240) scale(4)"><rect width="6" height="6"/></g>
<g transform="translate(792,240) scale(4)"><rect width="6" height="6"/></g>
<g transform="translate(864,240) scale(4)"><rect width="6" height="6"/></g>
<g transform="translate(888,240) scale(4)"><rect width="6" height="6"/></g>
<g transform="translate(912,240) scale(4)"><rect width="6" height="6"/></g>
<g transform="translate(96,264) scale(4)"><rect width="6" height="6"/></g>
<g transform="translate(120,264) scale(4)"><rect width="6" height="6"/></g>
<g transform="translate(144,264) scale(4)"><rect width="6" height="6"/></g>
<g transform="translate(240,264) scale(4)"><rect width="6" height="6"/></g>
<g transform="translate(264,264) scale(4)"><rect width="6" height="6"/></g>
<g transform="translate(288,264) scale(4)"><rect width="6" height="6"/></g>
<g transform="translate(312,264) scale(4)"><rect width="6" height="6"/></g>
<g transform="translate(360,264) scale(4)"><rect width="6" height="6"/></g>
<g transform="translate(384,264) scale(4)"><rect width="6" height="6"/></g>
<g transform="translate(432,264) scale(4)"><rect width="6" height="6"/></g>
<g transform="translate(504,264) scale(4)"><rect width="6" height="6"/></g>
<g transform="translate(600,264) scale(4)"><rect width="6" height="6"/></g>
<g transform="translate(648,264) scale(4)"><rect width="6" height="6"/></g>
<g transform="translate(696,264) scale(4)"><rect width="6" height="6"/></g>
<g transform="translate(864,264) scale(4)"><rect width="6" height="6"/></g>
<g transform="translate(48,288) scale(4)"><rect width="6" height="6"/></g>
<g transform="translate(72,288) scale(4)"><rect width="6" height="6"/></g>
<g transform="translate(168,288) scale(4)"><rect width="6" height="6"/></g>
<g transform="translate(192,288) scale(4)"><rect width="6" height="6"/></g>
<g transform="translate(216,288) scale(4)"><rect width="6" height="6"/></g>
<g transform="translate(240,288) scale(4)"><rect width="6" height="6"/></g>
<g transform="translate(288,288) scale(4)"><rect width="6" height="6"/></g>
<g transform="translate(408,288) scale(4)"><rect width="6" height="6"/></g>
<g transform="translate(432,288) scale(4)"><rect width="6" height="6"/></g>
<g transform="translate(456,288) scale(4)"><rect width="6" height="6"/></g>
<g transform="translate(480,288) scale(4)"><rect width="6" height="6"/></g>
<g transform="translate(504,288) scale(4)"><rect width="6" height="6"/></g>
<g transform="translate(528,288) scale(4)"><rect width="6" height="6"/></g>
<g transform="translate(552,288) scale(4)"><rect width="6" height="6"/></g>
<g transform="translate(576,288) scale(4)"><rect width="6" height="6"/></g>
<g transform="translate(600,288) scale(4)"><rect width="6" height="6"/></g>
<g transform="translate(672,288) scale(4)"><rect width="6" height="6"/></g>
<g transform="translate(696,288) scale(4)"><rect width="6" height="6"/></g>
<g transform="translate(720,288) scale(4)"><rect width="6" height="6"/></g>
<g transform="translate(768,288) scale(4)"><rect width="6" height="6"/></g>
<g transform="translate(816,288) scale(4)"><rect width="6" height="6"/></g>
<g transform="translate(864,288) scale(4)"><rect width="6" height="6"/></g>
<g transform="translate(888,288) scale(4)"><rect width="6" height="6"/></g>
<g transform="translate(912,288) scale(4)"><rect width="6" height="6"/></g>
<g transform="translate(96,312) scale(4)"><rect width="6" height="6"/></g>
<g transform="translate(120,312) scale(4)"><rect width="6" height="6"/></g>
<g transform="translate(216,312) scale(4)"><rect width="6" height="6"/></g>
<g transform="translate(264,312) scale(4)"><rect width="6" height="6"/></g>
<g transform="translate(288,312) scale(4)"><rect width="6" height="6"/></g>
<g transform="translate(312,312) scale(4)"><rect width="6" height="6"/></g>
<g transform="translate(360,312) scale(4)"><rect width="6" height="6"/></g>
<g transform="translate(432,312) scale(4)"><rect width="6" height="6"/></g>
<g transform="translate(480,312) scale(4)"><rect width="6" height="6"/></g>
<g transform="translate(504,312) scale(4)"><rect width="6" height="6"/></g>
<g transform="translate(528,312) scale(4)"><rect width="6" height="6"/></g>
<g transform="translate(552,312) scale(4)"><rect width="6" height="6"/></g>
<g transform="translate(696,312) scale(4)"><rect width="6" height="6"/></g>
<g transform="translate(816,312) scale(4)"><rect width="6" height="6"/></g>
<g transform="translate(96,336) scale(4)"><rect width="6" height="6"/></g>
<g transform="translate(120,336) scale(4)"><rect width="6" height="6"/></g>
<g transform="translate(192,336) scale(4)"><rect width="6" height="6"/></g>
<g transform="translate(216,336) scale(4)"><rect width="6" height="6"/></g>
<g transform="translate(312,336) scale(4)"><rect width="6" height="6"/></g>
<g transform="translate(336,336) scale(4)"><rect width="6" height="6"/></g>
<g transform="translate(360,336) scale(4)"><rect width="6" height="6"/></g>
<g transform="translate(408,336) scale(4)"><rect width="6" height="6"/></g>
<g transform="translate(504,336) scale(4)"><rect width="6" height="6"/></g>
<g transform="translate(528,336) scale(4)"><rect width="6" height="6"/></g>
<g transform="translate(600,336) scale(4)"><rect width="6" height="6"/></g>
<g transform="translate(624,336) scale(4)"><rect width="6" height="6"/></g>
<g transform="translate(648,336) scale(4)"><rect width="6" height="6"/></g>
<g transform="translate(672,336) scale(4)"><rect width="6" height="6"/></g>
<g transform="translate(696,336) scale(4)"><rect width="6" height="6"/></g>
<g transform="translate(744,336) scale(4)"><rect width="6" height="6"/></g>
<g transform="translate(768,336) scale(4)"><rect width="6" height="6"/></g>
<g transform="translate(816,336) scale(4)"><rect width="6" height="6"/></g>
<g transform="translate(840,336) scale(4)"><rect width="6" height="6"/></g>
<g transform="translate(864,336) scale(4)"><rect width="6" height="6"/></g>
<g transform="translate(912,336) scale(4)"><rect width="6" height="6"/></g>
<g transform="translate(48,360) scale(4)"><rect width="6" height="6"/></g>
<g transform="translate(240,360) scale(4)"><rect width="6" height="6"/></g>
<g transform="translate(264,360) scale(4)"><rect width="6" height="6"/></g>
<g transform="translate(288,360) scale(4)"><rect width="6" height="6"/></g>
<g transform="translate(336,360) scale(4)"><rect width="6" height="6"/></g>
<g transform="translate(432,360) scale(4)"><rect width="6" height="6"/></g>
<g transform="translate(480,360) scale(4)"><rect width="6" height="6"/></g>
<g transform="translate(504,360) scale(4)"><rect width="6" height="6"/></g>
<g transform="translate(576,360) scale(4)"><rect width="6" height="6"/></g>
<g transform="translate(600,360) scale(4)"><rect width="6" height="6"/></g>
<g transform="translate(624,360) scale(4)"><rect width="6" height="6"/></g>
<g transform="translate(720,360) scale(4)"><rect width="6" height="6"/></g>
<g transform="translate(792,360) scale(4)"><rect width="6" height="6"/></g>
<g transform="translate(840,360) scale(4)"><rect width="6" height="6"/></g>
<g transform="translate(48,384) scale(4)"><rect width="6" height="6"/></g>
<g transform="translate(72,384) scale(4)"><rect width="6" height="6"/></g>
<g transform="translate(96,384) scale(4)"><rect width="6" height="6"/></g>
<g transform="translate(120,384) scale(4)"><rect width="6" height="6"/></g>
<g transform="translate(144,384) scale(4)"><rect width="6" height="6"/></g>
<g transform="translate(168,384) scale(4)"><rect width="6" height="6"/></g>
<g transform="translate(192,384) scale(4)"><rect width="6" height="6"/></g>
<g transform="translate(240,384) scale(4)"><rect width="6" height="6"/></g>
<g transform="translate(360,384) scale(4)"><rect width="6" height="6"/></g>
<g transform="translate(552,384) scale(4)"><rect width="6" height="6"/></g>
<g transform="translate(576,384) scale(4)"><rect width="6" height="6"/></g>
<g transform="translate(696,384) scale(4)"><rect width="6" height="6"/></g>
<g transform="translate(744,384) scale(4)"><rect width="6" height="6"/></g>
<g transform="translate(840,384) scale(4)"><rect width="6" height="6"/></g>
<g transform="translate(912,384) scale(4)"><rect width="6" height="6"/></g>
<g transform="translate(72,408) scale(4)"><rect width="6" height="6"/></g>
<g transform="translate(216,408) scale(4)"><rect width="6" height="6"/></g>
<g transform="translate(264,408) scale(4)"><rect width="6" height="6"/></g>
<g transform="translate(336,408) scale(4)"><rect width="6" height="6"/></g>
<g transform="translate(360,408) scale(4)"><rect width="6" height="6"/></g>
<g transform="translate(384,408) scale(4)"><rect width="6" height="6"/></g>
<g transform="translate(432,408) scale(4)"><rect width="6" height="6"/></g>
<g transform="translate(456,408) scale(4)"><rect width="6" height="6"/></g>
<g transform="translate(576,408) scale(4)"><rect width="6" height="6"/></g>
<g transform="translate(696,408) scale(4)"><rect width="6" height="6"/></g>
<g transform="translate(744,408) scale(4)"><rect width="6" height="6"/></g>
<g transform="translate(792,408) scale(4)"><rect width="6" height="6"/></g>
<g transform="translate(888,408) scale(4)"><rect width="6" height="6"/></g>
<g transform="translate(912,408) scale(4)"><rect width="6" height="6"/></g>
<g transform="translate(120,432) scale(4)"><rect width="6" height="6"/></g>
<g transform="translate(168,432) scale(4)"><rect width="6" height="6"/></g>
<g transform="translate(192,432) scale(4)"><rect width="6" height="6"/></g>
<g transform="translate(240,432) scale(4)"><rect width="6" height="6"/></g>
<g transform="translate(264,432) scale(4)"><rect width="6" height="6"/></g>
<g transform="translate(288,432) scale(4)"><rect width="6" height="6"/></g>
<g transform="translate(312,432) scale(4)"><rect width="6" height="6"/></g>
<g transform="translate(336,432) scale(4)"><rect width="6" height="6"/></g>
<g transform="translate(480,432) scale(4)"><rect width="6" height="6"/></g>
<g transform="translate(504,432) scale(4)"><rect width="6" height="6"/></g>
<g transform="translate(552,432) scale(4)"><rect width="6" height="6"/></g>
<g transform="translate(576,432) scale(4)"><rect width="6" height="6"/></g>
<g transform="translate(624,432) scale(4)"><rect width="6" height="6"/></g>
<g transform="translate(648,432) scale(4)"><rect width="6" height="6"/></g>
<g transform="translate(672,432) scale(4)"><rect width="6" height="6"/></g>
<g transform="translate(696,432) scale(4)"><rect width="6" height="6"/></g>
<g transform="translate(744,432) scale(4)"><rect width="6" height="6"/></g>
<g transform="translate(768,432) scale(4)"><rect width="6" height="6"/></g>
<g transform="translate(816,432) scale(4)"><rect width="6" height="6"/></g>
<g transform="translate(840,432) scale(4)"><rect width="6" height="6"/></g>
<g transform="translate(864,432) scale(4)"><rect width="6" height="6"/></g>
<g transform="translate(888,432) scale(4)"><rect width="6" height="6"/></g>
<g transform="translate(912,432) scale(4)"><rect width="6" height="6"/></g>
<g transform="translate(120,456) scale(4)"><rect width="6" height="6"/></g>
<g transform="translate(216,456) scale(4)"><rect width="6" height="6"/></g>
<g transform="translate(264,456) scale(4)"><rect width="6" height="6"/></g>
<g transform="translate(288,456) scale(4)"><rect width="6" height="6"/></g>
<g transform="translate(336,456) scale(4)"><rect width="6" height="6"/></g>
<g transform="translate(408,456) scale(4)"><rect width="6" height="6"/></g>
<g transform="translate(432,456) scale(4)"><rect width="6" height="6"/></g>
<g transform="translate(480,456) scale(4)"><rect width="6" height="6"/></g>
<g transform="translate(504,456) scale(4)"><rect width="6" height="6"/></g>
<g transform="translate(528,456) scale(4)"><rect width="6" height="6"/></g>
<g transform="translate(552,456) scale(4)"><rect width="6" height="6"/></g>
<g transform="translate(624,456) scale(4)"><rect width="6" height="6"/></g>
<g transform="translate(720,456) scale(4)"><rect width="6" height="6"/></g>
<g transform="translate(744,456) scale(4)"><rect width="6" height="6"/></g>
<g transform="translate(792,456) scale(4)"><rect width="6" height="6"/></g>
<g transform="translate(864,456) scale(4)"><rect width="6" height="6"/></g>
<g transform="translate(888,456) scale(4)"><rect width="6" height="6"/></g>
<g transform="translate(912,456) scale(4)"><rect width="6" height="6"/></g>
<g transform="translate(48,480) scale(4)"><rect width="6" height="6"/></g>
<g transform="translate(168,480) scale(4)"><rect width="6" height="6"/></g>
<g transform="translate(192,480) scale(4)"><rect width="6" height="6"/></g>
<g transform="translate(240,480) scale(4)"><rect width="6" height="6"/></g>
<g transform="translate(288,480) scale(4)"><rect width="6" height="6"/></g>
<g transform="translate(408,480) scale(4)"><rect width="6" height="6"/></g>
<g transform="translate(456,480) scale(4)"><rect width="6" height="6"/></g>
<g transform="translate(552,480) scale(4)"><rect width="6" height="6"/></g>
<g transform="translate(576,480) scale(4)"><rect width="6" height="6"/></g>
<g transform="translate(648,480) scale(4)"><rect width="6" height="6"/></g>
<g transform="translate(696,480) scale(4)"><rect width="6" height="6"/></g>
<g transform="translate(720,480) scale(4)"><rect width="6" height="6"/></g>
<g transform="translate(744,480) scale(4)"><rect width="6" height="6"/></g>
<g transform="translate(816,480) scale(4)"><rect width="6" height="6"/></g>
<g transform="translate(840,480) scale(4)"><rect width="6" height="6"/></g>
<g transform="translate(888,480) scale(4)"><rect width="6" height="6"/></g>
<g transform="translate(912,480) scale(4)"><rect width="6" height="6"/></g>
<g transform="translate(168,504) scale(4)"><rect width="6" height="6"/></g>
<g transform="translate(216,504) scale(4)"><rect width="6" height="6"/></g>
<g transform="translate(336,504) scale(4)"><rect width="6" height="6"/></g>
<g transform="translate(384,504) scale(4)"><rect width="6" height="6"/></g>
<g transform="translate(432,504) scale(4)"><rect width="6" height="6"/></g>
<g transform="translate(456,504) scale(4)"><rect width="6" height="6"/></g>
<g transform="translate(576,504) scale(4)"><rect width="6" height="6"/></g>
<g transform="translate(600,504) scale(4)"><rect width="6" height="6"/></g>
<g transform="translate(744,504) scale(4)"><rect width="6" height="6"/></g>
<g transform="translate(792,504) scale(4)"><rect width="6" height="6"/></g>
<g transform="translate(816,504) scale(4)"><rect width="6" height="6"/></g>
<g transform="translate(840,504) scale(4)"><rect width="6" height="6"/></g>
<g transform="translate(48,528) scale(4)"><rect width="6" height="6"/></g>
<g transform="translate(72,528) scale(4)"><rect width="6" height="6"/></g>
<g transform="translate(120,528) scale(4)"><rect width="6" height="6"/></g>
<g transform="translate(192,528) scale(4)"><rect width="6" height="6"/></g>
<g transform="translate(264,528) scale(4)"><rect width="6" height="6"/></g>
<g transform="translate(336,528) scale(4)"><rect width="6" height="6"/></g>
<g transform="translate(360,528) scale(4)"><rect width="6" height="6"/></g>
<g transform="translate(432,528) scale(4)"><rect width="6" height="6"/></g>
<g transform="translate(456,528) scale(4)"><rect width="6" height="6"/></g>
<g transform="translate(528,528) scale(4)"><rect width="6" height="6"/></g>
<g transform="translate(552,528) scale(4)"><rect width="6" height="6"/></g>
<g transform="translate(600,528) scale(4)"><rect width="6" height="6"/></g>
<g transform="translate(624,528) scale(4)"><rect width="6" height="6"/></g>
<g transform="translate(648,528) scale(4)"><rect width="6" height="6"/></g>
<g transform="translate(672,528) scale(4)"><rect width="6" height="6"/></g>
<g transform="translate(696,528) scale(4)"><rect width="6" height="6"/></g>
<g transform="translate(720,528) scale(4)"><rect width="6" height="6"/></g>
<g transform="translate(768,528) scale(4)"><rect width="6" height="6"/></g>
<g transform="translate(792,528) scale(4)"><rect width="6" height="6"/></g>
<g transform="translate(816,528) scale(4)"><rect width="6" height="6"/></g>
<g transform="translate(840,528) scale(4)"><rect width="6" height="6"/></g>
<g transform="translate(864,528) scale(4)"><rect width="6" height="6"/></g>
<g transform="translate(888,528) scale(4)"><rect width="6" height="6"/></g>
<g transform="translate(912,528) scale(4)"><rect width="6" height="6"/></g>
<g transform="translate(48,552) scale(4)"><rect width="6" height="6"/></g>
<g transform="translate(72,552) scale(4)"><rect width="6" height="6"/></g>
<g transform="translate(96,552) scale(4)"><rect width="6" height="6"/></g>
<g transform="translate(168,552) scale(4)"><rect width="6" height="6"/></g>
<g transform="translate(216,552) scale(4)"><rect width="6" height="6"/></g>
<g transform="translate(240,552) scale(4)"><rect width="6" height="6"/></g>
<g transform="translate(288,552) scale(4)"><rect width="6" height="6"/></g>
<g transform="translate(312,552) scale(4)"><rect width="6" height="6"/></g>
<g transform="translate(336,552) scale(4)"><rect width="6" height="6"/></g>
<g transform="translate(360,552) scale(4)"><rect width="6" height="6"/></g>
<g transform="translate(408,552) scale(4)"><rect width="6" height="6"/></g>
<g transform="translate(432,552) scale(4)"><rect width="6" height="6"/></g>
<g transform="translate(480,552) scale(4)"><rect width="6" height="6"/></g>
<g transform="translate(552,552) scale(4)"><rect width="6" height="6"/></g>
<g transform="translate(696,552) scale(4)"><rect width="6" height="6"/></g>
<g transform="translate(720,552) scale(4)"><rect width="6" height="6"/></g>
<g transform="translate(792,552) scale(4)"><rect width="6" height="6"/></g>
<g transform="translate(840,552) scale(4)"><rect width="6" height="6"/></g>
<g transform="translate(48,576) scale(4)"><rect width="6" height="6"/></g>
<g transform="translate(72,576) scale(4)"><rect width="6" height="6"/></g>
<g transform="translate(96,576) scale(4)"><rect width="6" height="6"/></g>
<g transform="translate(120,576) scale(4)"><rect width="6" height="6"/></g>
<g transform="translate(144,576) scale(4)"><rect width="6" height="6"/></g>
<g transform="translate(192,576) scale(4)"><rect width="6" height="6"/></g>
<g transform="translate(216,576) scale(4)"><rect width="6" height="6"/></g>
<g transform="translate(336,576) scale(4)"><rect width="6" height="6"/></g>
<g transform="translate(408,576) scale(4)"><rect width="6" height="6"/></g>
<g transform="translate(480,576) scale(4)"><rect width="6" height="6"/></g>
<g transform="translate(552,576) scale(4)"><rect width="6" height="6"/></g>
<g transform="translate(624,576) scale(4)"><rect width="6" height="6"/></g>
<g transform="translate(696,576) scale(4)"><rect width="6" height="6"/></g>
<g transform="translate(720,576) scale(4)"><rect width="6" height="6"/></g>
<g transform="translate(744,576) scale(4)"><rect width="6" height="6"/></g>
<g transform="translate(792,576) scale(4)"><rect width="6" height="6"/></g>
<g transform="translate(864,576) scale(4)"><rect width="6" height="6"/></g>
<g transform="translate(888,576) scale(4)"><rect width="6" height="6"/></g>
<g transform="translate(912,576) scale(4)"><rect width="6" height="6"/></g>
<g transform="translate(96,600) scale(4)"><rect width="6" height="6"/></g>
<g transform="translate(120,600) scale(4)"><rect width="6" height="6"/></g>
<g transform="translate(144,600) scale(4)"><rect width="6" height="6"/></g>
<g transform="translate(168,600) scale(4)"><rect width="6" height="6"/></g>
<g transform="translate(216,600) scale(4)"><rect width="6" height="6"/></g>
<g transform="translate(288,600) scale(4)"><rect width="6" height="6"/></g>
<g transform="translate(336,600) scale(4)"><rect width="6" height="6"/></g>
<g transform="translate(360,600) scale(4)"><rect width="6" height="6"/></g>
<g transform="translate(432,600) scale(4)"><rect width="6" height="6"/></g>
<g transform="translate(480,600) scale(4)"><rect width="6" height="6"/></g>
<g transform="translate(504,600) scale(4)"><rect width="6" height="6"/></g>
<g transform="translate(528,600) scale(4)"><rect width="6" height="6"/></g>
<g transform="translate(576,600) scale(4)"><rect width="6" height="6"/></g>
<g transform="translate(600,600) scale(4)"><rect width="6" height="6"/></g>
<g transform="translate(672,600) scale(4)"><rect width="6" height="6"/></g>
<g transform="translate(696,600) scale(4)"><rect width="6" height="6"/></g>
<g transform="translate(144,624) scale(4)"><rect width="6" height="6"/></g>
<g transform="translate(168,624) scale(4)"><rect width="6" height="6"/></g>
<g transform="translate(192,624) scale(4)"><rect width="6" height="6"/></g>
<g transform="translate(240,624) scale(4)"><rect width="6" height="6"/></g>
<g transform="translate(336,624) scale(4)"><rect width="6" height="6"/></g>
<g transform="translate(360,624) scale(4)"><rect width="6" height="6"/></g>
<g transform="translate(480,624) scale(4)"><rect width="6" height="6"/></g>
<g transform="translate(504,624) scale(4)"><rect width="6" height="6"/></g>
<g transform="translate(600,624) scale(4)"><rect width="6" height="6"/></g>
<g transform="translate(696,624) scale(4)"><rect width="6" height="6"/></g>
<g transform="translate(768,624) scale(4)"><rect width="6" height="6"/></g>
<g transform="translate(816,624) scale(4)"><rect width="6" height="6"/></g>
<g transform="translate(840,624) scale(4)"><rect width="6" height="6"/></g>
<g transform="translate(864,624) scale(4)"><rect width="6" height="6"/></g>
<g transform="translate(888,624) scale(4)"><rect width="6" height="6"/></g>
<g transform="translate(912,624) scale(4)"><rect width="6" height="6"/></g>
<g transform="translate(48,648) scale(4)"><rect width="6" height="6"/></g>
<g transform="translate(72,648) scale(4)"><rect width="6" height="6"/></g>
<g transform="translate(96,648) scale(4)"><rect width="6" height="6"/></g>
<g transform="translate(168,648) scale(4)"><rect width="6" height="6"/></g>
<g transform="translate(216,648) scale(4)"><rect width="6" height="6"/></g>
<g transform="translate(264,648) scale(4)"><rect width="6" height="6"/></g>
<g transform="translate(336,648) scale(4)"><rect width="6" height="6"/></g>
<g transform="translate(360,648) scale(4)"><rect width="6" height="6"/></g>
<g transform="translate(384,648) scale(4)"><rect width="6" height="6"/></g>
<g transform="translate(408,648) scale(4)"><rect width="6" height="6"/></g>
<g transform="translate(432,648) scale(4)"><rect width="6" height="6"/></g>
<g transform="translate(456,648) scale(4)"><rect width="6" height="6"/></g>
<g transform="translate(528,648) scale(4)"><rect width="6" height="6"/></g>
<g transform="translate(576,648) scale(4)"><rect width="6" height="6"/></g>
<g transform="translate(624,648) scale(4)"><rect width="6" height="6"/></g>
<g transform="translate(672,648) scale(4)"><rect width="6" height="6"/></g>
<g transform="translate(696,648) scale(4)"><rect width="6" height="6"/></g>
<g transform="translate(720,648) scale(4)"><rect width="6" height="6"/></g>
<g transform="translate(768,648) scale(4)"><rect width="6" height="6"/></g>
<g transform="translate(816,648) scale(4)"><rect width="6" height="6"/></g>
<g transform="translate(840,648) scale(4)"><rect width="6" height="6"/></g>
<g transform="translate(888,648) scale(4)"><rect width="6" height="6"/></g>
<g transform="translate(48,672) scale(4)"><rect width="6" height="6"/></g>
<g transform="translate(120,672) scale(4)"><rect width="6" height="6"/></g>
<g transform="translate(168,672) scale(4)"><rect width="6" height="6"/></g>
<g transform="translate(192,672) scale(4)"><rect width="6" height="6"/></g>
<g transform="translate(216,672) scale(4)"><rect width="6" height="6"/></g>
<g transform="translate(240,672) scale(4)"><rect width="6" height="6"/></g>
<g transform="translate(336,672) scale(4)"><rect width="6" height="6"/></g>
<g transform="translate(408,672) scale(4)"><rect width="6" height="6"/></g>
<g transform="translate(480,672) scale(4)"><rect width="6" height="6"/></g>
<g transform="translate(528,672) scale(4)"><rect width="6" height="6"/></g>
<g transform="translate(576,672) scale(4)"><rect width="6" height="6"/></g>
<g transform="translate(744,672) scale(4)"><rect width="6" height="6"/></g>
<g transform="translate(792,672) scale(4)"><rect width="6" height="6"/></g>
<g transform="translate(816,672) scale(4)"><rect width="6" height="6"/></g>
<g transform="translate(864,672) scale(4)"><rect width="6" height="6"/></g>
<g transform="translate(888,672) scale(4)"><rect width="6" height="6"/></g>
<g transform="translate(912,672) scale(4)"><rect width="6" height="6"/></g>
<g transform="translate(48,696) scale(4)"><rect width="6" height="6"/></g>
<g transform="translate(168,696) scale(4)"><rect width="6" height="6"/></g>
<g transform="translate(240,696) scale(4)"><rect width="6" height="6"/></g>
<g transform="translate(288,696) scale(4)"><rect width="6" height="6"/></g>
<g transform="translate(312,696) scale(4)"><rect width="6" height="6"/></g>
<g transform="translate(384,696) scale(4)"><rect width="6" height="6"/></g>
<g transform="translate(456,696) scale(4)"><rect width="6" height="6"/></g>
<g transform="translate(504,696) scale(4)"><rect width="6" height="6"/></g>
<g transform="translate(552,696) scale(4)"><rect width="6" height="6"/></g>
<g transform="translate(576,696) scale(4)"><rect width="6" height="6"/></g>
<g transform="translate(624,696) scale(4)"><rect width="6" height="6"/></g>
<g transform="translate(672,696) scale(4)"><rect width="6" height="6"/></g>
<g transform="translate(720,696) scale(4)"><rect width="6" height="6"/></g>
<g transform="translate(744,696) scale(4)"><rect width="6" height="6"/></g>
<g transform="translate(768,696) scale(4)"><rect width="6" height="6"/></g>
<g transform="translate(864,696) scale(4)"><rect width="6" height="6"/></g>
<g transform="translate(888,696) scale(4)"><rect width="6" height="6"/></g>
<g transform="translate(912,696) scale(4)"><rect width="6" height="6"/></g>
<g transform="translate(48,720) scale(4)"><rect width="6" height="6"/></g>
<g transform="translate(96,720) scale(4)"><rect width="6" height="6"/></g>
<g transform="translate(120,720) scale(4)"><rect width="6" height="6"/></g>
<g transform="translate(192,720) scale(4)"><rect width="6" height="6"/></g>
<g transform="translate(288,720) scale(4)"><rect width="6" height="6"/></g>
<g transform="translate(312,720) scale(4)"><rect width="6" height="6"/></g>
<g transform="translate(456,720) scale(4)"><rect width="6" height="6"/></g>
<g transform="translate(552,720) scale(4)"><rect width="6" height="6"/></g>
<g transform="translate(576,720) scale(4)"><rect width="6" height="6"/></g>
<g transform="translate(648,720) scale(4)"><rect width="6" height="6"/></g>
<g transform="translate(672,720) scale(4)"><rect width="6" height="6"/></g>
<g transform="translate(720,720) scale(4)"><rect width="6" height="6"/></g>
<g transform="translate(744,720) scale(4)"><rect width="6" height="6"/></g>
<g transform="translate(768,720) scale(4)"><rect width="6" height="6"/></g>
<g transform="translate(792,720) scale(4)"><rect width="6" height="6"/></g>
<g transform="translate(816,720) scale(4)"><rect width="6" height="6"/></g>
<g transform="translate(840,720) scale(4)"><rect width="6" height="6"/></g>
<g transform="translate(888,720) scale(4)"><rect width="6" height="6"/></g>
<g transform="translate(912,720) scale(4)"><rect width="6" height="6"/></g>
<g transform="translate(240,744) scale(4)"><rect width="6" height="6"/></g>
<g transform="translate(264,744) scale(4)"><rect width="6" height="6"/></g>
<g transform="translate(288,744) scale(4)"><rect width="6" height="6"/></g>
<g transform="translate(312,744) scale(4)"><rect width="6" height="6"/></g>
<g transform="translate(336,744) scale(4)"><rect width="6" height="6"/></g>
<g transform="translate(360,744) scale(4)"><rect width="6" height="6"/></g>
<g transform="translate(384,744) scale(4)"><rect width="6" height="6"/></g>
<g transform="translate(456,744) scale(4)"><rect width="6" height="6"/></g>
<g transform="translate(480,744) scale(4)"><rect width="6" height="6"/></g>
<g transform="translate(504,744) scale(4)"><rect width="6" height="6"/></g>
<g transform="translate(552,744) scale(4)"><rect width="6" height="6"/></g>
<g transform="translate(600,744) scale(4)"><rect width="6" height="6"/></g>
<g transform="translate(648,744) scale(4)"><rect width="6" height="6"/></g>
<g transform="translate(720,744) scale(4)"><rect width="6" height="6"/></g>
<g transform="translate(816,744) scale(4)"><rect width="6" height="6"/></g>
<g transform="translate(840,744) scale(4)"><rect width="6" height="6"/></g>
<g transform="translate(864,744) scale(4)"><rect width="6" height="6"/></g>
<g transform="translate(288,768) scale(4)"><rect width="6" height="6"/></g>
<g transform="translate(336,768) scale(4)"><rect width="6" height="6"/></g>
<g transform="translate(384,768) scale(4)"><rect width="6" height="6"/></g>
<g transform="translate(456,768) scale(4)"><rect width="6" height="6"/></g>
<g transform="translate(480,768) scale(4)"><rect width="6" height="6"/></g>
<g transform="translate(504,768) scale(4)"><rect width="6" height="6"/></g>
<g transform="translate(528,768) scale(4)"><rect width="6" height="6"/></g>
<g transform="translate(552,768) scale(4)"><rect width="6" height="6"/></g>
<g transform="translate(624,768) scale(4)"><rect width="6" height="6"/></g>
<g transform="translate(672,768) scale(4)"><rect width="6" height="6"/></g>
<g transform="translate(720,768) scale(4)"><rect width="6" height="6"/></g>
<g transform="translate(768,768) scale(4)"><rect width="6" height="6"/></g>
<g transform="translate(816,768) scale(4)"><rect width="6" height="6"/></g>
<g transform="translate(840,768) scale(4)"><rect width="6" height="6"/></g>
<g transform="translate(888,768) scale(4)"><rect width="6" height="6"/></g>
<g transform="translate(912,768) scale(4)"><rect width="6" height="6"/></g>
<g transform="translate(288,792) scale(4)"><rect width="6" height="6"/></g>
<g transform="translate(336,792) scale(4)"><rect width="6" height="6"/></g>
<g transform="translate(360,792) scale(4)"><rect width="6" height="6"/></g>
<g transform="translate(408,792) scale(4)"><rect width="6" height="6"/></g>
<g transform="translate(504,792) scale(4)"><rect width="6" height="6"/></g>
<g transform="translate(552,792) scale(4)"><rect width="6" height="6"/></g>
<g transform="translate(576,792) scale(4)"><rect width="6" height="6"/></g>
<g transform="translate(624,792) scale(4)"><rect width="6" height="6"/></g>
<g transform="translate(672,792) scale(4)"><rect width="6" height="6"/></g>
<g transform="translate(720,792) scale(4)"><rect width="6" height="6"/></g>
<g transform="translate(816,792) scale(4)"><rect width="6" height="6"/></g>
<g transform="translate(888,792) scale(4)"><rect width="6" height="6"/></g>
<g transform="translate(240,816) scale(4)"><rect width="6" height="6"/></g>
<g transform="translate(264,816) scale(4)"><rect width="6" height="6"/></g>
<g transform="translate(288,816) scale(4)"><rect width="6" height="6"/></g>
<g transform="translate(432,816) scale(4)"><rect width="6" height="6"/></g>
<g transform="translate(456,816) scale(4)"><rect width="6" height="6"/></g>
<g transform="translate(480,816) scale(4)"><rect width="6" height="6"/></g>
<g transform="translate(504,816) scale(4)"><rect width="6" height="6"/></g>
<g transform="translate(528,816) scale(4)"><rect width="6" height="6"/></g>
<g transform="translate(624,816) scale(4)"><rect width="6" height="6"/></g>
<g transform="translate(648,816) scale(4)"><rect width="6" height="6"/></g>
<g transform="translate(672,816) scale(4)"><rect width="6" height="6"/></g>
<g transform="translate(696,816) scale(4)"><rect width="6" height="6"/></g>
<g transform="translate(720,816) scale(4)"><rect width="6" height="6"/></g>
<g transform="translate(744,816) scale(4)"><rect width="6" height="6"/></g>
<g transform="translate(768,816) scale(4)"><rect width="6" height="6"/></g>
<g transform="translate(792,816) scale(4)"><rect width="6" height="6"/></g>
<g transform="translate(816,816) scale(4)"><rect width="6" height="6"/></g>
<g transform="translate(840,816) scale(4)"><rect width="6" height="6"/></g>
<g transform="translate(864,816) scale(4)"><rect width="6" height="6"/></g>
<g transform="translate(912,816) scale(4)"><rect width="6" height="6"/></g>
<g transform="translate(240,840) scale(4)"><rect width="6" height="6"/></g>
<g transform="translate(264,840) scale(4)"><rect width="6" height="6"/></g>
<g transform="translate(288,840) scale(4)"><rect width="6" height="6"/></g>
<g transform="translate(360,840) scale(4)"><rect width="6" height="6"/></g>
<g transform="translate(384,840) scale(4)"><rect width="6" height="6"/></g>
<g transform="translate(432,840) scale(4)"><rect width="6" height="6"/></g>
<g transform="translate(504,840) scale(4)"><rect width="6" height="6"/></g>
<g transform="translate(528,840) scale(4)"><rect width="6" height="6"/></g>
<g transform="translate(696,840) scale(4)"><rect width="6" height="6"/></g>
<g transform="translate(744,840) scale(4)"><rect width="6" height="6"/></g>
<g transform="translate(768,840) scale(4)"><rect width="6" height="6"/></g>
<g transform="translate(816,840) scale(4)"><rect width="6" height="6"/></g>
<g transform="translate(840,840) scale(4)"><rect width="6" height="6"/></g>
<g transform="translate(240,864) scale(4)"><rect width="6" height="6"/></g>
<g transform="translate(264,864) scale(4)"><rect width="6" height="6"/></g>
<g transform="translate(312,864) scale(4)"><rect width="6" height="6"/></g>
<g transform="translate(336,864) scale(4)"><rect width="6" height="6"/></g>
<g transform="translate(360,864) scale(4)"><rect width="6" height="6"/></g>
<g transform="translate(384,864) scale(4)"><rect width="6" height="6"/></g>
<g transform="translate(504,864) scale(4)"><rect width="6" height="6"/></g>
<g transform="translate(552,864) scale(4)"><rect width="6" height="6"/></g>
<g transform="translate(600,864) scale(4)"><rect width="6" height="6"/></g>
<g transform="translate(624,864) scale(4)"><rect width="6" height="6"/></g>
<g transform="translate(696,864) scale(4)"><rect width="6" height="6"/></g>
<g transform="translate(792,864) scale(4)"><rect width="6" height="6"/></g>
<g transform="translate(840,864) scale(4)"><rect width="6" height="6"/></g>
<g transform="translate(912,864) scale(4)"><rect width="6" height="6"/></g>
<g transform="translate(288,888) scale(4)"><rect width="6" height="6"/></g>
<g transform="translate(384,888) scale(4)"><rect width="6" height="6"/></g>
<g transform="translate(408,888) scale(4)"><rect width="6" height="6"/></g>
<g transform="translate(480,888) scale(4)"><rect width="6" height="6"/></g>
<g transform="translate(528,888) scale(4)"><rect width="6" height="6"/></g>
<g transform="translate(576,888) scale(4)"><rect width="6" height="6"/></g>
<g transform="translate(600,888) scale(4)"><rect width="6" height="6"/></g>
<g transform="translate(672,888) scale(4)"><rect width="6" height="6"/></g>
<g transform="translate(720,888) scale(4)"><rect width="6" height="6"/></g>
<g transform="translate(768,888) scale(4)"><rect width="6" height="6"/></g>
<g transform="translate(792,888) scale(4)"><rect width="6" height="6"/></g>
<g transform="translate(912,888) scale(4)"><rect width="6" height="6"/></g>
<g transform="translate(288,912) scale(4)"><rect width="6" height="6"/></g>
<g transform="translate(336,912) scale(4)"><rect width="6" height="6"/></g>
<g transform="translate(360,912) scale(4)"><rect width="6" height="6"/></g>
<g transform="translate(408,912) scale(4)"><rect width="6" height="6"/></g>
<g transform="translate(432,912) scale(4)"><rect width="6" height="6"/></g>
<g transform="translate(456,912) scale(4)"><rect width="6" height="6"/></g>
<g transform="translate(504,912) scale(4)"><rect width="6" height="6"/></g>
<g transform="translate(576,912) scale(4)"><rect width="6" height="6"/></g>
<g transform="translate(600,912) scale(4)"><rect width="6" height="6"/></g>
<g transform="translate(624,912) scale(4)"><rect width="6" height="6"/></g>
<g transform="translate(648,912) scale(4)"><rect width="6" height="6"/></g>
<g transform="translate(744,912) scale(4)"><rect width="6" height="6"/></g>
<g transform="translate(840,912) scale(4)"><rect width="6" height="6"/></g>
<g transform="translate(864,912) scale(4)"><rect width="6" height="6"/></g>
<g transform="translate(888,912) scale(4)"><rect width="6" height="6"/></g>
<g transform="translate(912,912) scale(4)"><rect width="6" height="6"/></g>
</g></mask></defs>
<rect width="984" height="984" fill="#ffffff" x="0" y="0" />
<rect x="0" y="0" width="984" height="984" mask="url(#qrmask)" fill="#000000" />
<g transform="translate(48,48)"  fill="#000000"><g transform="scale(12)"><path d="M0,0v14h14V0H0z M12,12H2V2h10V12z"/></g></g>
<g transform="translate(768,48)"  fill="#000000"><g transform="scale(12)"><path d="M0,0v14h14V0H0z M12,12H2V2h10V12z"/></g></g>
<g transform="translate(48,768)"  fill="#000000"><g transform="scale(12)"><path d="M0,0v14h14V0H0z M12,12H2V2h10V12z"/></g></g>
<g transform="translate(96,96)"  fill="#000000"><g transform="scale(12)"><path d="M4.5,1.5L4.5,1.5L4.5,1.5C4.5,0.7,3.8,0,3,0h0C2.2,0,1.5,0.7,1.5,1.5v0h0C0.7,1.5,0,2.2,0,3v0 c0,0.8,0.7,1.5,1.5,1.5h0v0C1.5,5.3,2.2,6,3,6h0c0.8,0,1.5-0.7,1.5-1.5v0h0C5.3,4.5,6,3.8,6,3v0C6,2.2,5.3,1.5,4.5,1.5z"/></g></g>
<g transform="translate(816,96)"  fill="#000000"><g transform="scale(12)"><path d="M4.5,1.5L4.5,1.5L4.5,1.5C4.5,0.7,3.8,0,3,0h0C2.2,0,1.5,0.7,1.5,1.5v0h0C0.7,1.5,0,2.2,0,3v0 c0,0.8,0.7,1.5,1.5,1.5h0v0C1.5,5.3,2.2,6,3,6h0c0.8,0,1.5-0.7,1.5-1.5v0h0C5.3,4.5,6,3.8,6,3v0C6,2.2,5.3,1.5,4.5,1.5z"/></g></g>
<g transform="translate(96,816)"  fill="#000000"><g transform="scale(12)"><path d="M4.5,1.5L4.5,1.5L4.5,1.5C4.5,0.7,3.8,0,3,0h0C2.2,0,1.5,0.7,1.5,1.5v0h0C0.7,1.5,0,2.2,0,3v0 c0,0.8,0.7,1.5,1.5,1.5h0v0C1.5,5.3,2.2,6,3,6h0c0.8,0,1.5-0.7,1.5-1.5v0h0C5.3,4.5,6,3.8,6,3v0C6,2.2,5.3,1.5,4.5,1.5z"/></g></g>
</svg>